<mxfile host="app.diagrams.net" modified="2023-05-04T12:22:12.502Z" agent="Mozilla/5.0 (Windows NT 10.0; Win64; x64) AppleWebKit/537.36 (KHTML, like Gecko) Chrome/112.0.0.0 Safari/537.36" etag="yfwIO_eVG1VtemBRs9-F" version="21.2.7" type="device">
  <diagram name="Página-1" id="rSN_L0bRU6gXf0vTnQ6l">
    <mxGraphModel dx="2022" dy="663" grid="1" gridSize="10" guides="1" tooltips="1" connect="1" arrows="1" fold="1" page="1" pageScale="1" pageWidth="827" pageHeight="1169" math="0" shadow="0">
      <root>
        <mxCell id="0" />
        <mxCell id="1" parent="0" />
        <mxCell id="vxHyAzYuThqT1edkHrln-14" value="" style="endArrow=none;html=1;rounded=0;entryX=0.5;entryY=1;entryDx=0;entryDy=0;exitX=0.5;exitY=0;exitDx=0;exitDy=0;" edge="1" parent="1" source="vxHyAzYuThqT1edkHrln-8" target="vxHyAzYuThqT1edkHrln-6">
          <mxGeometry relative="1" as="geometry">
            <mxPoint x="500" y="1385" as="sourcePoint" />
            <mxPoint x="660" y="1385" as="targetPoint" />
          </mxGeometry>
        </mxCell>
        <mxCell id="vxHyAzYuThqT1edkHrln-15" value="1" style="resizable=0;html=1;whiteSpace=wrap;align=right;verticalAlign=bottom;" connectable="0" vertex="1" parent="vxHyAzYuThqT1edkHrln-14">
          <mxGeometry x="1" relative="1" as="geometry">
            <mxPoint y="50" as="offset" />
          </mxGeometry>
        </mxCell>
        <mxCell id="vxHyAzYuThqT1edkHrln-7" value="" style="verticalLabelPosition=bottom;verticalAlign=top;html=1;shape=mxgraph.basic.rect;fillColor2=none;strokeWidth=1;size=20;indent=5;fillColor=default;sketch=1;curveFitting=1;jiggle=2;strokeColor=#FF0000;gradientColor=none;" vertex="1" parent="1">
          <mxGeometry x="40" y="1075" width="560" height="120" as="geometry" />
        </mxCell>
        <mxCell id="WBDvZr1wioJLlzxbL4jX-41" value="" style="verticalLabelPosition=bottom;verticalAlign=top;html=1;shape=mxgraph.basic.rect;fillColor2=none;strokeWidth=1;size=20;indent=5;fillColor=default;sketch=1;curveFitting=1;jiggle=2;strokeColor=#FF0000;gradientColor=none;" parent="1" vertex="1">
          <mxGeometry x="40" y="560" width="560" height="120" as="geometry" />
        </mxCell>
        <mxCell id="WBDvZr1wioJLlzxbL4jX-17" value="" style="endArrow=none;html=1;rounded=0;exitX=0.5;exitY=0;exitDx=0;exitDy=0;entryX=0.5;entryY=1;entryDx=0;entryDy=0;" parent="1" source="WBDvZr1wioJLlzxbL4jX-14" target="WBDvZr1wioJLlzxbL4jX-3" edge="1">
          <mxGeometry relative="1" as="geometry">
            <mxPoint x="360" y="250" as="sourcePoint" />
            <mxPoint x="430" y="250" as="targetPoint" />
          </mxGeometry>
        </mxCell>
        <mxCell id="WBDvZr1wioJLlzxbL4jX-18" value="N" style="resizable=0;html=1;whiteSpace=wrap;align=right;verticalAlign=bottom;" parent="WBDvZr1wioJLlzxbL4jX-17" connectable="0" vertex="1">
          <mxGeometry x="1" relative="1" as="geometry">
            <mxPoint x="10" y="50" as="offset" />
          </mxGeometry>
        </mxCell>
        <mxCell id="WBDvZr1wioJLlzxbL4jX-12" value="" style="verticalLabelPosition=bottom;verticalAlign=top;html=1;shape=mxgraph.basic.rect;fillColor2=none;strokeWidth=1;size=20;indent=5;fillColor=default;sketch=1;curveFitting=1;jiggle=2;strokeColor=#FF0000;" parent="1" vertex="1">
          <mxGeometry x="40" y="40" width="560" height="160" as="geometry" />
        </mxCell>
        <mxCell id="WBDvZr1wioJLlzxbL4jX-1" value="Funcionário" style="whiteSpace=wrap;html=1;align=center;fillColor=#f8cecc;strokeColor=#b85450;fontColor=#964541;" parent="1" vertex="1">
          <mxGeometry x="70" y="120" width="100" height="40" as="geometry" />
        </mxCell>
        <mxCell id="WBDvZr1wioJLlzxbL4jX-2" value="Projeto" style="whiteSpace=wrap;html=1;align=center;fillColor=#f8cecc;strokeColor=#b85450;fontColor=#964541;" parent="1" vertex="1">
          <mxGeometry x="470" y="120" width="100" height="40" as="geometry" />
        </mxCell>
        <mxCell id="WBDvZr1wioJLlzxbL4jX-3" value="Trabalha" style="shape=rhombus;perimeter=rhombusPerimeter;whiteSpace=wrap;html=1;align=center;fillColor=#fff2cc;strokeColor=#d6b656;fontColor=#8C5901;" parent="1" vertex="1">
          <mxGeometry x="260" y="110" width="120" height="60" as="geometry" />
        </mxCell>
        <mxCell id="WBDvZr1wioJLlzxbL4jX-4" value="horas" style="ellipse;whiteSpace=wrap;html=1;align=center;fillColor=#d5e8d4;strokeColor=#82b366;fontColor=#61854E;" parent="1" vertex="1">
          <mxGeometry x="330" y="50" width="60" height="30" as="geometry" />
        </mxCell>
        <mxCell id="WBDvZr1wioJLlzxbL4jX-8" value="" style="endArrow=none;html=1;rounded=0;exitX=1;exitY=0.5;exitDx=0;exitDy=0;entryX=0;entryY=0.5;entryDx=0;entryDy=0;" parent="1" source="WBDvZr1wioJLlzxbL4jX-3" target="WBDvZr1wioJLlzxbL4jX-2" edge="1">
          <mxGeometry relative="1" as="geometry">
            <mxPoint x="370" y="190" as="sourcePoint" />
            <mxPoint x="530" y="190" as="targetPoint" />
          </mxGeometry>
        </mxCell>
        <mxCell id="WBDvZr1wioJLlzxbL4jX-9" value="N" style="resizable=0;html=1;whiteSpace=wrap;align=right;verticalAlign=bottom;" parent="WBDvZr1wioJLlzxbL4jX-8" connectable="0" vertex="1">
          <mxGeometry x="1" relative="1" as="geometry" />
        </mxCell>
        <mxCell id="WBDvZr1wioJLlzxbL4jX-10" value="" style="endArrow=none;html=1;rounded=0;entryX=1;entryY=0.5;entryDx=0;entryDy=0;exitX=0;exitY=0.5;exitDx=0;exitDy=0;" parent="1" source="WBDvZr1wioJLlzxbL4jX-3" target="WBDvZr1wioJLlzxbL4jX-1" edge="1">
          <mxGeometry relative="1" as="geometry">
            <mxPoint x="240" y="240" as="sourcePoint" />
            <mxPoint x="180" y="139.5" as="targetPoint" />
          </mxGeometry>
        </mxCell>
        <mxCell id="WBDvZr1wioJLlzxbL4jX-11" value="1" style="resizable=0;html=1;whiteSpace=wrap;align=right;verticalAlign=bottom;" parent="WBDvZr1wioJLlzxbL4jX-10" connectable="0" vertex="1">
          <mxGeometry x="1" relative="1" as="geometry">
            <mxPoint x="10" y="1" as="offset" />
          </mxGeometry>
        </mxCell>
        <mxCell id="WBDvZr1wioJLlzxbL4jX-13" value="Máquinas" style="whiteSpace=wrap;html=1;align=center;fillColor=#f8cecc;strokeColor=#b85450;fontColor=#964541;" parent="1" vertex="1">
          <mxGeometry x="270" y="400" width="100" height="40" as="geometry" />
        </mxCell>
        <mxCell id="WBDvZr1wioJLlzxbL4jX-14" value="Usa" style="shape=rhombus;perimeter=rhombusPerimeter;whiteSpace=wrap;html=1;align=center;fillColor=#fff2cc;strokeColor=#d6b656;fontColor=#8C5901;" parent="1" vertex="1">
          <mxGeometry x="260" y="260" width="120" height="60" as="geometry" />
        </mxCell>
        <mxCell id="WBDvZr1wioJLlzxbL4jX-15" value="" style="endArrow=none;html=1;rounded=0;entryX=0.5;entryY=0;entryDx=0;entryDy=0;exitX=0.5;exitY=1;exitDx=0;exitDy=0;" parent="1" source="WBDvZr1wioJLlzxbL4jX-14" target="WBDvZr1wioJLlzxbL4jX-13" edge="1">
          <mxGeometry relative="1" as="geometry">
            <mxPoint x="100" y="360" as="sourcePoint" />
            <mxPoint x="260" y="360" as="targetPoint" />
          </mxGeometry>
        </mxCell>
        <mxCell id="WBDvZr1wioJLlzxbL4jX-16" value="N" style="resizable=0;html=1;whiteSpace=wrap;align=right;verticalAlign=bottom;" parent="WBDvZr1wioJLlzxbL4jX-15" connectable="0" vertex="1">
          <mxGeometry x="1" relative="1" as="geometry" />
        </mxCell>
        <mxCell id="WBDvZr1wioJLlzxbL4jX-19" value="" style="endArrow=none;html=1;rounded=0;entryX=0.5;entryY=1;entryDx=0;entryDy=0;exitX=1;exitY=0;exitDx=0;exitDy=0;" parent="1" source="WBDvZr1wioJLlzxbL4jX-3" target="WBDvZr1wioJLlzxbL4jX-4" edge="1">
          <mxGeometry relative="1" as="geometry">
            <mxPoint x="30" y="280" as="sourcePoint" />
            <mxPoint x="190" y="280" as="targetPoint" />
          </mxGeometry>
        </mxCell>
        <mxCell id="WBDvZr1wioJLlzxbL4jX-20" value="Agregação" style="text;strokeColor=none;fillColor=none;align=left;verticalAlign=middle;whiteSpace=wrap;rounded=0;fontStyle=1;labelBackgroundColor=none;fontColor=default;labelBorderColor=none;html=1;" parent="1" vertex="1">
          <mxGeometry x="40" y="10" width="560" height="30" as="geometry" />
        </mxCell>
        <mxCell id="WBDvZr1wioJLlzxbL4jX-24" value="Assassina" style="shape=rhombus;perimeter=rhombusPerimeter;whiteSpace=wrap;html=1;align=center;fillColor=#fff2cc;strokeColor=#d6b656;fontColor=#8C5901;" parent="1" vertex="1">
          <mxGeometry x="260" y="590" width="120" height="60" as="geometry" />
        </mxCell>
        <mxCell id="WBDvZr1wioJLlzxbL4jX-25" value="Assassino" style="whiteSpace=wrap;html=1;align=center;fillColor=#f8cecc;strokeColor=#b85450;fontColor=#964541;" parent="1" vertex="1">
          <mxGeometry x="70" y="600" width="100" height="40" as="geometry" />
        </mxCell>
        <mxCell id="WBDvZr1wioJLlzxbL4jX-26" value="Vitima" style="whiteSpace=wrap;html=1;align=center;fillColor=#f8cecc;strokeColor=#b85450;fontColor=#964541;" parent="1" vertex="1">
          <mxGeometry x="470" y="600" width="100" height="40" as="geometry" />
        </mxCell>
        <mxCell id="WBDvZr1wioJLlzxbL4jX-33" value="" style="endArrow=none;html=1;rounded=0;exitX=0.5;exitY=0;exitDx=0;exitDy=0;entryX=0.5;entryY=1;entryDx=0;entryDy=0;" parent="1" source="WBDvZr1wioJLlzxbL4jX-37" target="WBDvZr1wioJLlzxbL4jX-24" edge="1">
          <mxGeometry relative="1" as="geometry">
            <mxPoint x="80" y="790" as="sourcePoint" />
            <mxPoint x="350" y="700" as="targetPoint" />
          </mxGeometry>
        </mxCell>
        <mxCell id="WBDvZr1wioJLlzxbL4jX-34" value="N" style="resizable=0;html=1;whiteSpace=wrap;align=right;verticalAlign=bottom;" parent="WBDvZr1wioJLlzxbL4jX-33" connectable="0" vertex="1">
          <mxGeometry x="1" relative="1" as="geometry">
            <mxPoint y="50" as="offset" />
          </mxGeometry>
        </mxCell>
        <mxCell id="WBDvZr1wioJLlzxbL4jX-36" value="Arma" style="whiteSpace=wrap;html=1;align=center;fillColor=#f8cecc;strokeColor=#b85450;fontColor=#964541;" parent="1" vertex="1">
          <mxGeometry x="270" y="880" width="100" height="40" as="geometry" />
        </mxCell>
        <mxCell id="WBDvZr1wioJLlzxbL4jX-37" value="Usa" style="shape=rhombus;perimeter=rhombusPerimeter;whiteSpace=wrap;html=1;align=center;fillColor=#fff2cc;strokeColor=#d6b656;fontColor=#8C5901;" parent="1" vertex="1">
          <mxGeometry x="260" y="740" width="120" height="60" as="geometry" />
        </mxCell>
        <mxCell id="WBDvZr1wioJLlzxbL4jX-42" value="" style="endArrow=none;html=1;rounded=0;exitX=1;exitY=0.5;exitDx=0;exitDy=0;entryX=0;entryY=0.5;entryDx=0;entryDy=0;" parent="1" source="WBDvZr1wioJLlzxbL4jX-25" target="WBDvZr1wioJLlzxbL4jX-24" edge="1">
          <mxGeometry relative="1" as="geometry">
            <mxPoint x="60" y="740" as="sourcePoint" />
            <mxPoint x="220" y="740" as="targetPoint" />
          </mxGeometry>
        </mxCell>
        <mxCell id="WBDvZr1wioJLlzxbL4jX-43" value="" style="endArrow=none;html=1;rounded=0;exitX=1;exitY=0.5;exitDx=0;exitDy=0;entryX=0;entryY=0.5;entryDx=0;entryDy=0;" parent="1" source="WBDvZr1wioJLlzxbL4jX-24" target="WBDvZr1wioJLlzxbL4jX-26" edge="1">
          <mxGeometry relative="1" as="geometry">
            <mxPoint x="80" y="730" as="sourcePoint" />
            <mxPoint x="240" y="730" as="targetPoint" />
          </mxGeometry>
        </mxCell>
        <mxCell id="WBDvZr1wioJLlzxbL4jX-45" value="" style="endArrow=none;html=1;rounded=0;entryX=0.5;entryY=0;entryDx=0;entryDy=0;exitX=0.5;exitY=1;exitDx=0;exitDy=0;" parent="1" source="WBDvZr1wioJLlzxbL4jX-37" target="WBDvZr1wioJLlzxbL4jX-36" edge="1">
          <mxGeometry relative="1" as="geometry">
            <mxPoint x="359.5" y="800" as="sourcePoint" />
            <mxPoint x="359.5" y="880" as="targetPoint" />
          </mxGeometry>
        </mxCell>
        <mxCell id="WBDvZr1wioJLlzxbL4jX-46" value="N" style="resizable=0;html=1;whiteSpace=wrap;align=right;verticalAlign=bottom;" parent="WBDvZr1wioJLlzxbL4jX-45" connectable="0" vertex="1">
          <mxGeometry x="1" relative="1" as="geometry" />
        </mxCell>
        <mxCell id="vxHyAzYuThqT1edkHrln-2" value="&lt;h1&gt;Exercícios&lt;/h1&gt;&lt;p&gt;- Um médico atende muitos pacientes, que o consultam, e um paciente pode realizar consultas com muitos médicos. Sempre que um paciente consulta um médico, este fornece uma receita, que pode ter um ou vários remédios.&lt;/p&gt;" style="text;html=1;strokeColor=none;fillColor=none;spacing=5;spacingTop=-20;whiteSpace=wrap;overflow=hidden;rounded=0;" vertex="1" parent="1">
          <mxGeometry x="40" y="960" width="560" height="120" as="geometry" />
        </mxCell>
        <mxCell id="vxHyAzYuThqT1edkHrln-4" value="Médico" style="whiteSpace=wrap;html=1;align=center;fillColor=#f8cecc;strokeColor=#b85450;fontColor=#964541;" vertex="1" parent="1">
          <mxGeometry x="70" y="1115" width="100" height="40" as="geometry" />
        </mxCell>
        <mxCell id="vxHyAzYuThqT1edkHrln-5" value="Pacientes" style="whiteSpace=wrap;html=1;align=center;fillColor=#f8cecc;strokeColor=#b85450;fontColor=#964541;" vertex="1" parent="1">
          <mxGeometry x="470" y="1115" width="100" height="40" as="geometry" />
        </mxCell>
        <mxCell id="vxHyAzYuThqT1edkHrln-6" value="atende" style="shape=rhombus;perimeter=rhombusPerimeter;whiteSpace=wrap;html=1;align=center;fillColor=#fff2cc;strokeColor=#d6b656;fontColor=#8C5901;" vertex="1" parent="1">
          <mxGeometry x="260" y="1105" width="120" height="60" as="geometry" />
        </mxCell>
        <mxCell id="vxHyAzYuThqT1edkHrln-8" value="" style="shape=rhombus;perimeter=rhombusPerimeter;whiteSpace=wrap;html=1;align=center;fillColor=#fff2cc;strokeColor=#d6b656;fontColor=#8C5901;" vertex="1" parent="1">
          <mxGeometry x="260" y="1285" width="120" height="60" as="geometry" />
        </mxCell>
        <mxCell id="vxHyAzYuThqT1edkHrln-9" value="Receita" style="whiteSpace=wrap;html=1;align=center;fillColor=#f8cecc;strokeColor=#b85450;fontColor=#964541;" vertex="1" parent="1">
          <mxGeometry x="270" y="1435" width="100" height="40" as="geometry" />
        </mxCell>
        <mxCell id="vxHyAzYuThqT1edkHrln-10" value="" style="endArrow=none;html=1;rounded=0;exitX=1;exitY=0.5;exitDx=0;exitDy=0;entryX=0;entryY=0.5;entryDx=0;entryDy=0;" edge="1" parent="1" source="vxHyAzYuThqT1edkHrln-6" target="vxHyAzYuThqT1edkHrln-5">
          <mxGeometry relative="1" as="geometry">
            <mxPoint x="280" y="1255" as="sourcePoint" />
            <mxPoint x="440" y="1255" as="targetPoint" />
          </mxGeometry>
        </mxCell>
        <mxCell id="vxHyAzYuThqT1edkHrln-11" value="N" style="resizable=0;html=1;whiteSpace=wrap;align=right;verticalAlign=bottom;" connectable="0" vertex="1" parent="vxHyAzYuThqT1edkHrln-10">
          <mxGeometry x="1" relative="1" as="geometry" />
        </mxCell>
        <mxCell id="vxHyAzYuThqT1edkHrln-12" value="" style="endArrow=none;html=1;rounded=0;entryX=1;entryY=0.5;entryDx=0;entryDy=0;exitX=0;exitY=0.5;exitDx=0;exitDy=0;" edge="1" parent="1" source="vxHyAzYuThqT1edkHrln-6" target="vxHyAzYuThqT1edkHrln-4">
          <mxGeometry relative="1" as="geometry">
            <mxPoint x="290" y="1265" as="sourcePoint" />
            <mxPoint x="450" y="1265" as="targetPoint" />
          </mxGeometry>
        </mxCell>
        <mxCell id="vxHyAzYuThqT1edkHrln-13" value="N" style="resizable=0;html=1;whiteSpace=wrap;align=right;verticalAlign=bottom;" connectable="0" vertex="1" parent="vxHyAzYuThqT1edkHrln-12">
          <mxGeometry x="1" relative="1" as="geometry">
            <mxPoint x="10" as="offset" />
          </mxGeometry>
        </mxCell>
        <mxCell id="vxHyAzYuThqT1edkHrln-16" value="" style="endArrow=none;html=1;rounded=0;exitX=0.5;exitY=1;exitDx=0;exitDy=0;entryX=0.5;entryY=0;entryDx=0;entryDy=0;" edge="1" parent="1" source="vxHyAzYuThqT1edkHrln-8" target="vxHyAzYuThqT1edkHrln-9">
          <mxGeometry relative="1" as="geometry">
            <mxPoint x="460" y="1425" as="sourcePoint" />
            <mxPoint x="620" y="1425" as="targetPoint" />
          </mxGeometry>
        </mxCell>
        <mxCell id="vxHyAzYuThqT1edkHrln-17" value="1" style="resizable=0;html=1;whiteSpace=wrap;align=right;verticalAlign=bottom;" connectable="0" vertex="1" parent="vxHyAzYuThqT1edkHrln-16">
          <mxGeometry x="1" relative="1" as="geometry" />
        </mxCell>
        <mxCell id="vxHyAzYuThqT1edkHrln-18" value="remedios" style="ellipse;shape=doubleEllipse;margin=3;whiteSpace=wrap;html=1;align=center;fillColor=#d5e8d4;strokeColor=#82b366;" vertex="1" parent="1">
          <mxGeometry x="280" y="1500" width="80" height="30" as="geometry" />
        </mxCell>
        <mxCell id="vxHyAzYuThqT1edkHrln-19" value="" style="endArrow=none;html=1;rounded=0;exitX=0.5;exitY=1;exitDx=0;exitDy=0;entryX=0.5;entryY=0;entryDx=0;entryDy=0;" edge="1" parent="1" source="vxHyAzYuThqT1edkHrln-9" target="vxHyAzYuThqT1edkHrln-18">
          <mxGeometry relative="1" as="geometry">
            <mxPoint x="160" y="1515" as="sourcePoint" />
            <mxPoint x="320" y="1515" as="targetPoint" />
          </mxGeometry>
        </mxCell>
        <mxCell id="vxHyAzYuThqT1edkHrln-20" value="codigo" style="ellipse;whiteSpace=wrap;html=1;align=center;fontStyle=4;fillColor=#d5e8d4;strokeColor=#82b366;" vertex="1" parent="1">
          <mxGeometry x="160" y="1440" width="80" height="30" as="geometry" />
        </mxCell>
        <mxCell id="vxHyAzYuThqT1edkHrln-23" value="descricao" style="ellipse;whiteSpace=wrap;html=1;align=center;fillColor=#d5e8d4;strokeColor=#82b366;" vertex="1" parent="1">
          <mxGeometry x="400" y="1440" width="80" height="30" as="geometry" />
        </mxCell>
        <mxCell id="vxHyAzYuThqT1edkHrln-26" value="codigo" style="ellipse;whiteSpace=wrap;html=1;align=center;fontStyle=4;fillColor=#d5e8d4;strokeColor=#82b366;" vertex="1" parent="1">
          <mxGeometry x="-80" y="1080" width="80" height="30" as="geometry" />
        </mxCell>
        <mxCell id="vxHyAzYuThqT1edkHrln-27" value="nome" style="ellipse;whiteSpace=wrap;html=1;align=center;fillColor=#d5e8d4;strokeColor=#82b366;" vertex="1" parent="1">
          <mxGeometry x="-80" y="1120" width="80" height="30" as="geometry" />
        </mxCell>
        <mxCell id="vxHyAzYuThqT1edkHrln-28" value="crm" style="ellipse;whiteSpace=wrap;html=1;align=center;fillColor=#d5e8d4;strokeColor=#82b366;" vertex="1" parent="1">
          <mxGeometry x="-80" y="1160" width="80" height="30" as="geometry" />
        </mxCell>
        <mxCell id="vxHyAzYuThqT1edkHrln-30" value="" style="endArrow=none;html=1;rounded=0;exitX=1;exitY=0.5;exitDx=0;exitDy=0;entryX=0;entryY=0.5;entryDx=0;entryDy=0;" edge="1" parent="1" source="vxHyAzYuThqT1edkHrln-26" target="vxHyAzYuThqT1edkHrln-4">
          <mxGeometry relative="1" as="geometry">
            <mxPoint x="60" y="1265" as="sourcePoint" />
            <mxPoint x="220" y="1265" as="targetPoint" />
            <Array as="points">
              <mxPoint x="40" y="1095" />
            </Array>
          </mxGeometry>
        </mxCell>
        <mxCell id="vxHyAzYuThqT1edkHrln-31" value="" style="endArrow=none;html=1;rounded=0;exitX=1;exitY=0.5;exitDx=0;exitDy=0;entryX=0;entryY=0.5;entryDx=0;entryDy=0;" edge="1" parent="1" source="vxHyAzYuThqT1edkHrln-27" target="vxHyAzYuThqT1edkHrln-4">
          <mxGeometry relative="1" as="geometry">
            <mxPoint x="70" y="1255" as="sourcePoint" />
            <mxPoint x="230" y="1255" as="targetPoint" />
          </mxGeometry>
        </mxCell>
        <mxCell id="vxHyAzYuThqT1edkHrln-32" value="" style="endArrow=none;html=1;rounded=0;exitX=1;exitY=0.5;exitDx=0;exitDy=0;entryX=0;entryY=0.5;entryDx=0;entryDy=0;" edge="1" parent="1" source="vxHyAzYuThqT1edkHrln-28" target="vxHyAzYuThqT1edkHrln-4">
          <mxGeometry relative="1" as="geometry">
            <mxPoint x="30" y="1295" as="sourcePoint" />
            <mxPoint x="190" y="1295" as="targetPoint" />
            <Array as="points">
              <mxPoint x="40" y="1175" />
            </Array>
          </mxGeometry>
        </mxCell>
        <mxCell id="vxHyAzYuThqT1edkHrln-33" value="codigo" style="ellipse;whiteSpace=wrap;html=1;align=center;fontStyle=4;fillColor=#d5e8d4;strokeColor=#82b366;" vertex="1" parent="1">
          <mxGeometry x="640" y="1060" width="80" height="30" as="geometry" />
        </mxCell>
        <mxCell id="vxHyAzYuThqT1edkHrln-34" value="nome" style="ellipse;whiteSpace=wrap;html=1;align=center;fillColor=#d5e8d4;strokeColor=#82b366;" vertex="1" parent="1">
          <mxGeometry x="640" y="1100" width="80" height="30" as="geometry" />
        </mxCell>
        <mxCell id="vxHyAzYuThqT1edkHrln-35" value="cpf" style="ellipse;whiteSpace=wrap;html=1;align=center;fillColor=#d5e8d4;strokeColor=#82b366;" vertex="1" parent="1">
          <mxGeometry x="640" y="1140" width="80" height="30" as="geometry" />
        </mxCell>
        <mxCell id="vxHyAzYuThqT1edkHrln-36" value="sexo" style="ellipse;whiteSpace=wrap;html=1;align=center;fillColor=#d5e8d4;strokeColor=#82b366;" vertex="1" parent="1">
          <mxGeometry x="640" y="1180" width="80" height="30" as="geometry" />
        </mxCell>
        <mxCell id="vxHyAzYuThqT1edkHrln-37" value="" style="endArrow=none;html=1;rounded=0;entryX=0;entryY=0.5;entryDx=0;entryDy=0;exitX=1;exitY=0.5;exitDx=0;exitDy=0;" edge="1" parent="1" source="vxHyAzYuThqT1edkHrln-5" target="vxHyAzYuThqT1edkHrln-33">
          <mxGeometry relative="1" as="geometry">
            <mxPoint x="470" y="1275" as="sourcePoint" />
            <mxPoint x="630" y="1275" as="targetPoint" />
            <Array as="points">
              <mxPoint x="600" y="1075" />
            </Array>
          </mxGeometry>
        </mxCell>
        <mxCell id="vxHyAzYuThqT1edkHrln-38" value="" style="endArrow=none;html=1;rounded=0;entryX=0;entryY=0.5;entryDx=0;entryDy=0;exitX=1;exitY=0.5;exitDx=0;exitDy=0;" edge="1" parent="1" source="vxHyAzYuThqT1edkHrln-5" target="vxHyAzYuThqT1edkHrln-34">
          <mxGeometry relative="1" as="geometry">
            <mxPoint x="480" y="1285" as="sourcePoint" />
            <mxPoint x="640" y="1285" as="targetPoint" />
            <Array as="points">
              <mxPoint x="600" y="1115" />
            </Array>
          </mxGeometry>
        </mxCell>
        <mxCell id="vxHyAzYuThqT1edkHrln-39" value="" style="endArrow=none;html=1;rounded=0;entryX=0;entryY=0.5;entryDx=0;entryDy=0;exitX=1;exitY=0.5;exitDx=0;exitDy=0;" edge="1" parent="1" source="vxHyAzYuThqT1edkHrln-5" target="vxHyAzYuThqT1edkHrln-35">
          <mxGeometry relative="1" as="geometry">
            <mxPoint x="490" y="1295" as="sourcePoint" />
            <mxPoint x="650" y="1295" as="targetPoint" />
            <Array as="points">
              <mxPoint x="600" y="1155" />
            </Array>
          </mxGeometry>
        </mxCell>
        <mxCell id="vxHyAzYuThqT1edkHrln-40" value="" style="endArrow=none;html=1;rounded=0;exitX=1;exitY=0.5;exitDx=0;exitDy=0;entryX=0;entryY=0.5;entryDx=0;entryDy=0;" edge="1" parent="1" source="vxHyAzYuThqT1edkHrln-5" target="vxHyAzYuThqT1edkHrln-36">
          <mxGeometry relative="1" as="geometry">
            <mxPoint x="500" y="1305" as="sourcePoint" />
            <mxPoint x="660" y="1305" as="targetPoint" />
            <Array as="points">
              <mxPoint x="600" y="1195" />
            </Array>
          </mxGeometry>
        </mxCell>
        <mxCell id="vxHyAzYuThqT1edkHrln-41" value="" style="endArrow=none;html=1;rounded=0;exitX=1;exitY=0.5;exitDx=0;exitDy=0;entryX=0;entryY=0.5;entryDx=0;entryDy=0;" edge="1" parent="1" source="vxHyAzYuThqT1edkHrln-9" target="vxHyAzYuThqT1edkHrln-23">
          <mxGeometry relative="1" as="geometry">
            <mxPoint x="400" y="1485" as="sourcePoint" />
            <mxPoint x="560" y="1485" as="targetPoint" />
          </mxGeometry>
        </mxCell>
        <mxCell id="vxHyAzYuThqT1edkHrln-42" value="" style="endArrow=none;html=1;rounded=0;exitX=1;exitY=0.5;exitDx=0;exitDy=0;entryX=0;entryY=0.5;entryDx=0;entryDy=0;" edge="1" parent="1" source="vxHyAzYuThqT1edkHrln-20" target="vxHyAzYuThqT1edkHrln-9">
          <mxGeometry relative="1" as="geometry">
            <mxPoint x="510" y="1315" as="sourcePoint" />
            <mxPoint x="670" y="1315" as="targetPoint" />
          </mxGeometry>
        </mxCell>
      </root>
    </mxGraphModel>
  </diagram>
</mxfile>
